<?xml version="1.0" encoding="UTF-8"?>
<svg width="1200px" height="630px" viewBox="0 0 1200 630" version="1.1" xmlns="http://www.w3.org/2000/svg" xmlns:xlink="http://www.w3.org/1999/xlink">
    <title>Desktop</title>
    <g id="Desktop" stroke="none" stroke-width="1" fill="none" fill-rule="evenodd" opacity="0.759230841">
        <g id="Group" transform="translate(89.000000, 250.500000) rotate(-3.000000) translate(-89.000000, -250.500000) translate(-55.000000, 107.000000)" fill="#5B507B" fill-rule="nonzero">
            <path d="M11.8433198,287 C8.39245867,285.971537 5.21888777,284.26057 2.53831027,281.983392 C-0.634303155,279.26662 -0.863868056,274.664336 2.02453674,271.683334 L86.7400836,184.373001 C89.6461127,181.407006 94.5690044,181.192392 97.7576716,183.892687 C100.954485,186.614464 104.893415,194.566322 101.982032,197.341467 L17.2664849,284.598432 C15.8761316,286.046123 13.922279,286.911358 11.8433198,287 Z" id="Path"></path>
            <path d="M168.5,0 C102.501972,0 49,50.5918233 49,113 C49,175.408177 102.501972,226 168.5,226 C234.498028,226 288,175.408177 288,113 C288,83.0305366 275.409858,54.2885445 252.99926,33.0969337 C230.588663,11.905323 200.193371,0 168.5,0 Z M168.5,210.048318 C111.818605,210.048318 65.8692563,166.598306 65.8692563,113 C65.8692563,59.4016938 111.818605,15.9516817 168.5,15.9516817 C225.181395,15.9516817 271.130744,59.4016938 271.130744,113 C271.130744,138.738814 260.317893,163.423434 241.070895,181.623524 C221.823897,199.823614 195.719366,210.048318 168.5,210.048318 Z" id="Shape"></path>
        </g>
        <g id="Group-Copy-3" transform="translate(1031.000000, 152.500000) scale(-1, 1) rotate(6.000000) translate(-1031.000000, -152.500000) translate(919.000000, 41.000000)" fill="#5B507B" fill-rule="nonzero">
            <path d="M9.19869499,223 C6.5184145,222.196819 4.05350506,220.860636 1.97150313,219.082268 C-0.492662645,216.960599 -0.67096548,213.366434 1.57245572,211.038413 L67.3709388,142.8532 C69.6280487,140.5369 73.4516539,140.369297 75.9282886,142.478098 C78.4112503,144.603677 81.4706137,150.813699 79.2093451,152.980955 L13.410862,221.12449 C12.330976,222.255068 10.8134206,222.930775 9.19869499,223 Z" id="Path"></path>
            <path d="M131,0 C79.6375183,0 38,39.398942 38,88 C38,136.601058 79.6375183,176 131,176 C182.362482,176 224,136.601058 224,88 C224,64.6609489 214.201814,42.2778046 196.760931,25.7746033 C179.320047,9.27140195 155.665134,0 131,0 Z M131,163.577451 C86.8881197,163.577451 51.1283752,129.740274 51.1283752,88 C51.1283752,46.2597261 86.8881197,12.4225486 131,12.4225486 C175.11188,12.4225486 210.871625,46.2597261 210.871625,88 C210.871625,108.044386 202.456603,127.267807 187.477768,141.441328 C172.498932,155.61485 152.183272,163.577451 131,163.577451 Z" id="Shape"></path>
        </g>
        <g id="Group-Copy-4" transform="translate(1240.000000, 485.000000) scale(-1, 1) translate(-1240.000000, -485.000000) translate(1062.000000, 308.000000)" fill="#5B507B" fill-rule="nonzero">
            <path d="M208.5,0 C127.037999,0 61,62.4562774 61,139.5 C61,216.543723 127.037999,279 208.5,279 C289.962001,279 356,216.543723 356,139.5 C356,102.5023 340.459866,67.0199288 312.79825,40.858604 C285.136634,14.6972792 247.619432,0 208.5,0 Z M208.5,259.307437 C138.537609,259.307437 81.8218854,205.667821 81.8218854,139.5 C81.8218854,73.3321795 138.537609,19.6925628 208.5,19.6925628 C278.462391,19.6925628 335.178115,73.3321795 335.178115,139.5 C335.178115,171.274908 321.831709,201.748398 298.074954,224.216651 C274.318199,246.684904 242.097125,259.307437 208.5,259.307437 Z" id="Shape"></path>
        </g>
        <g id="Group-Copy" transform="translate(266.000000, 424.500000) scale(-1, 1) rotate(15.000000) translate(-266.000000, -424.500000) translate(190.000000, 349.000000)" fill="#5B507B" fill-rule="nonzero">
            <path d="M6.20911912,151 C4.39992979,150.451486 2.73611592,149.538971 1.33076461,148.324476 C-0.332547285,146.875531 -0.452901699,144.420979 1.06140761,142.831111 L45.4753837,96.2656003 C46.9989329,94.6837368 49.5798664,94.5692758 51.2515948,96.0094331 C52.9275939,97.4610474 54.9926642,101.702038 53.4663079,103.182116 L9.05233187,149.719164 C8.32340883,150.491266 7.2990589,150.952724 6.20911912,151 Z" id="Path"></path>
            <path d="M89,0 C54.2060608,0 26,26.6390574 26,59.5 C26,92.3609426 54.2060608,119 89,119 C123.793939,119 152,92.3609426 152,59.5 C152,43.7196189 145.362519,28.585561 133.547727,17.4271465 C121.732935,6.268732 105.708639,0 89,0 Z M89,110.600663 C59.1177585,110.600663 34.8934154,87.722117 34.8934154,59.5 C34.8934154,31.277883 59.1177585,8.39933681 89,8.39933681 C118.882242,8.39933681 143.106585,31.277883 143.106585,59.5 C143.106585,73.0527385 137.406086,86.0503922 127.259133,95.6336255 C117.11218,105.216859 103.349958,110.600663 89,110.600663 Z" id="Shape"></path>
        </g>
        <g id="Group-Copy-2" transform="translate(936.000000, 405.500000) rotate(-23.000000) translate(-936.000000, -405.500000) translate(882.000000, 352.000000)" fill="#5B507B" fill-rule="nonzero">
            <path d="M4.36938012,107 C3.09624689,106.608205 1.9254149,105.956408 0.936463984,105.088911 C-0.234014756,104.053951 -0.318708603,102.3007 0.746916468,101.16508 L32.0011959,67.9040002 C33.0733231,66.7740977 34.8895356,66.6923399 36.0659371,67.7210236 C37.2453439,68.757891 38.6985415,71.7871702 37.6244389,72.8443684 L6.37015947,106.085117 C5.85721362,106.636618 5.13637478,106.966231 4.36938012,107 Z" id="Path"></path>
            <path d="M63,0 C38.1471863,0 18,18.8040405 18,42 C18,65.1959595 38.1471863,84 63,84 C87.8528137,84 108,65.1959595 108,42 C108,30.8609074 103.258942,20.1780431 94.8198052,12.3015152 C86.3806681,4.4249873 74.934742,0 63,0 Z M63,78.0710564 C41.6555418,78.0710564 24.3524396,61.9214943 24.3524396,42 C24.3524396,22.0785057 41.6555418,5.92894363 63,5.92894363 C84.3444582,5.92894363 101.64756,22.0785057 101.64756,42 C101.64756,51.566639 97.5757755,60.7414533 90.327952,67.5060886 C83.0801285,74.2707238 73.2499703,78.0710564 63,78.0710564 Z" id="Shape"></path>
        </g>
    </g>
</svg>